HIERARCHY
ROOT Hips
{
	OFFSET 0 0 0
	CHANNELS 6 Xposition Yposition Zposition Yrotation Xrotation Zrotation
	JOINT Spine
	{
		OFFSET -0 7.6537 -2.43962
		CHANNELS 3 Yrotation Xrotation Zrotation
		JOINT Spine1
		{
			OFFSET -0 6.97908 0
			CHANNELS 3 Yrotation Xrotation Zrotation
			JOINT Spine2
			{
				OFFSET -0 6.97908 0
				CHANNELS 3 Yrotation Xrotation Zrotation
				JOINT Spine3
				{
					OFFSET -0 6.97908 0
					CHANNELS 3 Yrotation Xrotation Zrotation
					JOINT Neck
					{
						OFFSET -0 12.4536 3.43962
						CHANNELS 3 Yrotation Xrotation Zrotation
						JOINT Head
						{
							OFFSET -0 9.56712 0
							CHANNELS 3 Yrotation Xrotation Zrotation
							End Site
							{
								OFFSET 0 15 0
							}
						}
					}
					JOINT LeftShoulder
					{
						OFFSET 1.59452 1.70466 3.18904
						CHANNELS 3 Yrotation Xrotation Zrotation
						JOINT LeftArm
						{
							OFFSET 16.7394 0 0
							CHANNELS 3 Yrotation Xrotation Zrotation
							JOINT LeftForeArm
							{
								OFFSET 22.0792 0 0
								CHANNELS 3 Yrotation Xrotation Zrotation
								JOINT LeftHand
								{
									OFFSET 21.9518 0 0
									CHANNELS 3 Yrotation Xrotation Zrotation
									JOINT LeftHandThumb1
									{
										OFFSET 4.21471 0 2.29637
										CHANNELS 3 Yrotation Xrotation Zrotation
										JOINT LeftHandThumb2
										{
											OFFSET 3 0 1
											CHANNELS 3 Yrotation Xrotation Zrotation
											JOINT LeftHandThumb3
											{
												OFFSET 2.1 0 0
												CHANNELS 3 Yrotation Xrotation Zrotation
												JOINT LeftHandThumb4
												{
													OFFSET 1.305 0 0
													CHANNELS 3 Yrotation Xrotation Zrotation
													End Site
													{
														OFFSET -0 0 0
													}
												}
											}
										}
									}
									JOINT LeftHandIndex1
									{
										OFFSET 7.90742 0 3.16134
										CHANNELS 3 Yrotation Xrotation Zrotation
										JOINT LeftHandIndex2
										{
											OFFSET 3.5 0 0
											CHANNELS 3 Yrotation Xrotation Zrotation
											JOINT LeftHandIndex3
											{
												OFFSET 2.45 0 0
												CHANNELS 3 Yrotation Xrotation Zrotation
												JOINT LeftHandIndex4
												{
													OFFSET 1.5225 0 0
													CHANNELS 3 Yrotation Xrotation Zrotation
													End Site
													{
														OFFSET -0 0 0
													}
												}
											}
										}
									}
									JOINT LeftHandMiddle1
									{
										OFFSET 7.88523 0 0.8816
										CHANNELS 3 Yrotation Xrotation Zrotation
										JOINT LeftHandMiddle2
										{
											OFFSET 4.6 0 0
											CHANNELS 3 Yrotation Xrotation Zrotation
											JOINT LeftHandMiddle3
											{
												OFFSET 3.22 0 0
												CHANNELS 3 Yrotation Xrotation Zrotation
												JOINT LeftHandMiddle4
												{
													OFFSET 2.001 0 0
													CHANNELS 3 Yrotation Xrotation Zrotation
													End Site
													{
														OFFSET -0 0 0
													}
												}
											}
										}
									}
									JOINT LeftHandRing1
									{
										OFFSET 7.56303 0 -1.39814
										CHANNELS 3 Yrotation Xrotation Zrotation
										JOINT LeftHandRing2
										{
											OFFSET 3.75 0 0
											CHANNELS 3 Yrotation Xrotation Zrotation
											JOINT LeftHandRing3
											{
												OFFSET 2.625 0 0
												CHANNELS 3 Yrotation Xrotation Zrotation
												JOINT LeftHandRing4
												{
													OFFSET 1.63125 0 0
													CHANNELS 3 Yrotation Xrotation Zrotation
													End Site
													{
														OFFSET -0 0 0
													}
												}
											}
										}
									}
									JOINT LeftHandPinky1
									{
										OFFSET 6.94084 0 -3.67789
										CHANNELS 3 Yrotation Xrotation Zrotation
										JOINT LeftHandPinky2
										{
											OFFSET 2.875 0 0
											CHANNELS 3 Yrotation Xrotation Zrotation
											JOINT LeftHandPinky3
											{
												OFFSET 2.0125 0 0
												CHANNELS 3 Yrotation Xrotation Zrotation
												JOINT LeftHandPinky4
												{
													OFFSET 1.25062 0 0
													CHANNELS 3 Yrotation Xrotation Zrotation
													End Site
													{
														OFFSET -0 0 0
													}
												}
											}
										}
									}
								}
							}
						}
					}
					JOINT RightShoulder
					{
						OFFSET -1.59452 1.70466 3.18904
						CHANNELS 3 Yrotation Xrotation Zrotation
						JOINT RightArm
						{
							OFFSET -16.7394 0 0
							CHANNELS 3 Yrotation Xrotation Zrotation
							JOINT RightForeArm
							{
								OFFSET -22.0792 0 0
								CHANNELS 3 Yrotation Xrotation Zrotation
								JOINT RightHand
								{
									OFFSET -21.9518 0 0
									CHANNELS 3 Yrotation Xrotation Zrotation
									JOINT RightHandThumb1
									{
										OFFSET -4.13818 0 2.6379
										CHANNELS 3 Yrotation Xrotation Zrotation
										JOINT RightHandThumb2
										{
											OFFSET -3 0 1
											CHANNELS 3 Yrotation Xrotation Zrotation
											JOINT RightHandThumb3
											{
												OFFSET -2.1 0 0
												CHANNELS 3 Yrotation Xrotation Zrotation
												JOINT RightHandThumb4
												{
													OFFSET -1.305 0 0
													CHANNELS 3 Yrotation Xrotation Zrotation
													End Site
													{
														OFFSET -0 0 0
													}
												}
											}
										}
									}
									JOINT RightHandIndex1
									{
										OFFSET -6.97845 0 3.45401
										CHANNELS 3 Yrotation Xrotation Zrotation
										JOINT RightHandIndex2
										{
											OFFSET -3.5 0 0
											CHANNELS 3 Yrotation Xrotation Zrotation
											JOINT RightHandIndex3
											{
												OFFSET -2.45 0 0
												CHANNELS 3 Yrotation Xrotation Zrotation
												JOINT RightHandIndex4
												{
													OFFSET -1.5225 0 0
													CHANNELS 3 Yrotation Xrotation Zrotation
													End Site
													{
														OFFSET -0 0 0
													}
												}
											}
										}
									}
									JOINT RightHandMiddle1
									{
										OFFSET -7.47728 0 1.18452
										CHANNELS 3 Yrotation Xrotation Zrotation
										JOINT RightHandMiddle2
										{
											OFFSET -4.6 0 0
											CHANNELS 3 Yrotation Xrotation Zrotation
											JOINT RightHandMiddle3
											{
												OFFSET -3.22 0 0
												CHANNELS 3 Yrotation Xrotation Zrotation
												JOINT RightHandMiddle4
												{
													OFFSET -2.001 0 0
													CHANNELS 3 Yrotation Xrotation Zrotation
													End Site
													{
														OFFSET -0 0 0
													}
												}
											}
										}
									}
									JOINT RightHandRing1
									{
										OFFSET -7.67611 0 -1.08498
										CHANNELS 3 Yrotation Xrotation Zrotation
										JOINT RightHandRing2
										{
											OFFSET -3.75 0 0
											CHANNELS 3 Yrotation Xrotation Zrotation
											JOINT RightHandRing3
											{
												OFFSET -2.625 0 0
												CHANNELS 3 Yrotation Xrotation Zrotation
												JOINT RightHandRing4
												{
													OFFSET -1.63125 0 0
													CHANNELS 3 Yrotation Xrotation Zrotation
													End Site
													{
														OFFSET -0 0 0
													}
												}
											}
										}
									}
									JOINT RightHandPinky1
									{
										OFFSET -7.57495 0 -3.35448
										CHANNELS 3 Yrotation Xrotation Zrotation
										JOINT RightHandPinky2
										{
											OFFSET -2.875 0 0
											CHANNELS 3 Yrotation Xrotation Zrotation
											JOINT RightHandPinky3
											{
												OFFSET -2.0125 0 0
												CHANNELS 3 Yrotation Xrotation Zrotation
												JOINT RightHandPinky4
												{
													OFFSET -1.25062 0 0
													CHANNELS 3 Yrotation Xrotation Zrotation
													End Site
													{
														OFFSET -0 0 0
													}
												}
											}
										}
									}
								}
							}
						}
					}
				}
			}
		}
	}
	JOINT LeftUpLeg
	{
		OFFSET 9.56712 -3.18904 3
		CHANNELS 3 Yrotation Xrotation Zrotation
		JOINT LeftLeg
		{
			OFFSET -0 -42.4756 2.23233
			CHANNELS 3 Yrotation Xrotation Zrotation
			JOINT LeftFoot
			{
				OFFSET -0 -34.3506 -2.23233
				CHANNELS 3 Yrotation Xrotation Zrotation
				JOINT LeftToeBase
				{
					OFFSET -0 -9.50731 8.10572
					CHANNELS 3 Yrotation Xrotation Zrotation
					End Site
					{
						OFFSET 0 0 5
					}
				}
			}
		}
	}
	JOINT RightUpLeg
	{
		OFFSET -9.56712 -3.18904 3
		CHANNELS 3 Yrotation Xrotation Zrotation
		JOINT RightLeg
		{
			OFFSET -0 -42.4756 2.23233
			CHANNELS 3 Yrotation Xrotation Zrotation
			JOINT RightFoot
			{
				OFFSET -0 -34.3506 -2.23233
				CHANNELS 3 Yrotation Xrotation Zrotation
				JOINT RightToeBase
				{
					OFFSET -0 -9.50731 8.10572
					CHANNELS 3 Yrotation Xrotation Zrotation
					End Site
					{
						OFFSET 0 0 5
					}
				}
			}
		}
	}
}
MOTION
Frames: 7
Frame Time: 0.0047619
0 90.263297 0 0 0 0 0 0 0 0 0 0 0 0 0 0 0 0 0 0 0 0 0 0 0 0 0 0 0 0 0 0 0 0 0 0 0 0 0 0 0 0 0 0 0 0 0 0 0 0 0 0 0 0 0 0 0 0 0 0 0 0 0 0 0 0 0 0 0 0 0 0 0 0 0 0 0 0 0 0 0 0 0 0 0 0 0 0 0 0 0 0 0 0 0 0 0 0 0 0 0 0 0 0 0 0 0 0 0 0 0 0 0 0 0 0 0 0 0 0 0 0 0 0 0 0 0 0 0 0 0 0 0 0 0 0 0 0 0 0 0 0 0 0 0 0 0 0 0 0 0 0 0 0 0 0 0 0 0 0 0 0 0 0 0 0 0 0 0 0 0 0 0 0 0 0 0 0 0 0 0 0 0 0 0 0 0 0 0 0 0 0
-48.223026 89.479639 37.706100 1.097542 1.173159 2.094397 1.534428 -1.150685 -1.236022 1.554782 -1.002811 -0.873739 1.235046 -0.793282 -0.489852 1.165240 -0.673525 -0.070442 -1.395886 -1.503429 0.321808 -0.609137 2.738572 -0.421996 5.455447 0.173152 9.062528 -4.492818 2.445396 5.474659 -6.633056 6.861807 0.348547 12.726335 7.285864 -29.709837 22.195978 4.240017 -7.171602 25.486364 5.102554 -8.089463 -6.400995 -2.331554 -4.733362 0.000004 -0.000000 -0.892250 0.000004 -0.000000 -0.892250 0.000000 -0.000003 -0.713801 0.000007 0.000001 -0.356902 0.000003 -0.000001 -1.669229 0.000003 -0.000001 -1.669229 -0.000009 0.000001 -1.335383 0.000006 -0.000001 -0.667692 -0.000007 -0.000001 4.531398 -0.000007 -0.000001 4.531398 0.000002 0.000003 3.625117 -0.000005 0.000002 1.812562 0.000005 0.000002 -6.060664 0.000005 0.000002 -6.060664 -0.000006 0.000001 -4.848534 -0.000001 0.000000 -2.424266 -168.578831 -0.013873 -179.861266 -8.875582 0.910675 -7.297652 6.003846 4.073778 -4.994991 8.469050 3.483843 1.707220 -10.942680 2.856288 34.018542 5.895667 8.292603 -13.051894 6.620014 9.643456 -14.956737 -51.774507 19.064768 19.286027 0.000004 -0.000001 -12.500005 0.000004 -0.000001 -12.500005 -0.000003 0.000000 -9.999995 0.000003 -0.000001 -5.000003 0.000000 -0.000005 -1.465146 0.000000 -0.000005 -1.465146 -0.000007 -0.000001 -1.172115 -0.000002 -0.000000 -0.586059 0.000028 0.000017 22.730245 0.000028 0.000017 22.730245 0.000010 0.000023 18.184210 0.000008 0.000012 9.092089 -0.000001 0.000002 25.966960 -0.000001 0.000002 25.966960 0.000002 -0.000001 20.773580 0.000000 -0.000000 10.386797 22.195978 4.240017 -7.171602 2.720509 5.685006 2.334429 0.000000 -0.203957 0.000000 3.285289 1.942302 -2.752854 0.000000 -9.135421 0.000000 -1.936084 5.618982 -12.611154 0.000000 -0.379388 0.000000 -4.733285 -0.148714 5.640312 0.000000 -5.016056 0.000000
-48.238284 89.478339 37.709299 1.113353 1.169455 2.105676 1.530729 -1.140813 -1.229847 1.551427 -1.013638 -0.874384 1.239450 -0.806297 -0.501365 1.169628 -0.696087 -0.076877 -1.387462 -1.465208 0.310185 -0.605317 2.775888 -0.385212 5.432819 0.187320 9.044611 -4.482670 2.427530 5.489300 -6.633322 6.923041 0.334506 12.698470 7.235233 -29.688437 22.195978 4.240017 -7.171602 25.486364 5.102554 -8.089463 -6.400995 -2.331554 -4.733362 0.000004 -0.000000 -0.892250 0.000004 -0.000000 -0.892250 0.000000 -0.000003 -0.713801 0.000007 0.000001 -0.356902 0.000003 -0.000001 -1.669229 0.000003 -0.000001 -1.669229 -0.000009 0.000001 -1.335383 0.000006 -0.000001 -0.667692 -0.000007 -0.000001 4.531398 -0.000007 -0.000001 4.531398 0.000002 0.000003 3.625117 -0.000005 0.000002 1.812562 0.000005 0.000002 -6.060664 0.000005 0.000002 -6.060664 -0.000006 0.000001 -4.848534 -0.000001 0.000000 -2.424266 -168.578831 -0.013873 -179.861266 -8.877866 0.961517 -7.272632 5.996259 4.003956 -5.056654 8.470124 3.466577 1.737062 -10.960085 2.947820 34.032673 5.895667 8.292603 -13.051894 6.620014 9.643456 -14.956737 -51.774507 19.064768 19.286027 0.000004 -0.000001 -12.500005 0.000004 -0.000001 -12.500005 -0.000003 0.000000 -9.999995 0.000003 -0.000001 -5.000003 0.000000 -0.000005 -1.465146 0.000000 -0.000005 -1.465146 -0.000007 -0.000001 -1.172115 -0.000002 -0.000000 -0.586059 0.000028 0.000017 22.730245 0.000028 0.000017 22.730245 0.000010 0.000023 18.184210 0.000008 0.000012 9.092089 -0.000001 0.000002 25.966960 -0.000001 0.000002 25.966960 0.000002 -0.000001 20.773580 0.000000 -0.000000 10.386797 22.195978 4.240017 -7.171602 2.749347 5.672425 2.334959 0.000000 -0.174086 0.000000 3.261131 1.953147 -2.750791 0.000000 -9.146539 0.000000 -1.909643 5.632854 -12.616090 0.000000 -0.365453 0.000000 -4.751173 -0.169352 5.713093 0.000000 -4.977475 0.000000
-48.257410 89.476837 37.711288 1.118991 1.169815 2.114284 1.537908 -1.140746 -1.230042 1.558763 -1.012683 -0.876105 1.240094 -0.811518 -0.504849 1.170284 -0.702684 -0.079284 -1.372074 -1.480268 0.326211 -0.599551 2.829524 -0.406564 5.451708 0.213841 9.040864 -4.506488 2.408800 5.484522 -6.675213 6.915808 0.315571 12.791783 7.390502 -29.648689 22.115645 4.260509 -7.190068 25.393687 5.125894 -8.110646 -6.392075 -2.221688 -4.867381 0.000011 -0.000006 -0.904305 0.000011 -0.000006 -0.904305 0.000006 -0.000004 -0.723441 0.000001 -0.000003 -0.361724 0.000010 -0.000011 -1.690312 0.000010 -0.000011 -1.690312 0.000002 -0.000008 -1.352252 0.000011 -0.000004 -0.676126 0.000002 0.000001 4.533023 0.000002 0.000001 4.533023 -0.000009 -0.000002 3.626417 0.000006 0.000002 1.813210 0.000001 0.000004 -6.052626 0.000001 0.000004 -6.052626 -0.000009 0.000004 -4.842104 0.000003 0.000001 -2.421048 -168.578885 -0.013873 -179.861267 -8.885231 0.936002 -7.282294 5.968025 4.082333 -5.053661 8.496098 3.471675 1.716174 -10.898784 2.352845 34.121977 5.734318 8.537586 -13.015109 6.430370 9.921528 -14.915631 -51.784312 19.057548 19.282867 0.000000 -0.000003 -12.499998 0.000000 -0.000003 -12.499998 0.000002 -0.000000 -9.999999 -0.000002 -0.000000 -4.999999 -0.000386 -0.000351 -1.772222 -0.000386 -0.000351 -1.772222 -0.000319 -0.000268 -1.417777 -0.000156 -0.000128 -0.708892 0.000448 0.000399 23.080673 0.000448 0.000399 23.080673 0.000208 0.000435 18.464535 0.000026 0.000235 9.232268 -0.000337 -0.000305 25.698711 -0.000337 -0.000305 25.698711 -0.000136 -0.000337 20.558976 -0.000002 -0.000182 10.279480 22.115645 4.260509 -7.190068 2.780021 5.667393 2.340084 0.000000 -0.170609 0.000000 3.202413 1.954563 -2.740660 0.000000 -9.183578 0.000000 -1.884651 5.642326 -12.614380 0.000000 -0.361829 0.000000 -4.784098 -0.222807 5.760874 0.000000 -4.934092 0.000000
-48.272952 89.478259 37.714661 1.142957 1.167013 2.118268 1.526854 -1.143391 -1.224063 1.547825 -1.019094 -0.871427 1.238902 -0.807635 -0.502449 1.169189 -0.699394 -0.087500 -1.353663 -1.468751 0.319079 -0.591640 2.832886 -0.410563 5.471498 0.197108 9.036163 -4.527643 2.445669 5.454294 -6.661115 6.890460 0.327820 12.764291 7.349705 -29.621544 22.115645 4.260509 -7.190068 25.393687 5.125894 -8.110646 -6.392075 -2.221688 -4.867381 0.000011 -0.000006 -0.904305 0.000011 -0.000006 -0.904305 0.000006 -0.000004 -0.723441 0.000001 -0.000003 -0.361724 0.000010 -0.000011 -1.690312 0.000010 -0.000011 -1.690312 0.000002 -0.000008 -1.352252 0.000011 -0.000004 -0.676126 0.000002 0.000001 4.533023 0.000002 0.000001 4.533023 -0.000009 -0.000002 3.626417 0.000006 0.000002 1.813210 0.000001 0.000004 -6.052626 0.000001 0.000004 -6.052626 -0.000009 0.000004 -4.842104 0.000003 0.000001 -2.421048 -168.578885 -0.013873 -179.861267 -8.883339 0.943899 -7.279934 5.962598 4.100630 -5.109224 8.515573 3.485917 1.766710 -10.930686 2.382449 34.127600 5.734318 8.537586 -13.015109 6.430370 9.921528 -14.915631 -51.784312 19.057548 19.282867 0.000000 -0.000003 -12.499998 0.000000 -0.000003 -12.499998 0.000002 -0.000000 -9.999999 -0.000002 -0.000000 -4.999999 -0.000386 -0.000351 -1.772222 -0.000386 -0.000351 -1.772222 -0.000319 -0.000268 -1.417777 -0.000156 -0.000128 -0.708892 0.000448 0.000399 23.080673 0.000448 0.000399 23.080673 0.000208 0.000435 18.464535 0.000026 0.000235 9.232268 -0.000337 -0.000305 25.698711 -0.000337 -0.000305 25.698711 -0.000136 -0.000337 20.558976 -0.000002 -0.000182 10.279480 22.115645 4.260509 -7.190068 2.794300 5.662887 2.350193 0.000000 -0.163035 0.000000 3.183713 1.947074 -2.751141 0.000000 -9.070734 0.000000 -1.894995 5.644721 -12.608406 0.000000 -0.342571 0.000000 -4.795524 -0.236683 5.754021 0.000000 -4.952235 0.000000
-48.293134 89.478522 37.714813 1.154079 1.162979 2.130709 1.542589 -1.147247 -1.230307 1.563946 -1.004246 -0.876106 1.232013 -0.816740 -0.501738 1.162502 -0.690772 -0.089096 -1.357253 -1.503025 0.308140 -0.592974 2.907465 -0.384082 5.454471 0.187292 9.019114 -4.532862 2.453946 5.454784 -6.655778 6.904037 0.325726 12.737286 7.291285 -29.599694 22.115645 4.260509 -7.190068 25.393687 5.125894 -8.110646 -6.392075 -2.221688 -4.867381 0.000011 -0.000006 -0.904305 0.000011 -0.000006 -0.904305 0.000006 -0.000004 -0.723441 0.000001 -0.000003 -0.361724 0.000010 -0.000011 -1.690312 0.000010 -0.000011 -1.690312 0.000002 -0.000008 -1.352252 0.000011 -0.000004 -0.676126 0.000002 0.000001 4.533023 0.000002 0.000001 4.533023 -0.000009 -0.000002 3.626417 0.000006 0.000002 1.813210 0.000001 0.000004 -6.052626 0.000001 0.000004 -6.052626 -0.000009 0.000004 -4.842104 0.000003 0.000001 -2.421048 -168.578885 -0.013873 -179.861267 -8.887637 0.955391 -7.275683 5.906878 4.105396 -5.151439 8.564600 3.525249 1.800071 -10.965547 2.381842 34.140845 5.734318 8.537586 -13.015109 6.430370 9.921528 -14.915631 -51.784312 19.057548 19.282867 0.000000 -0.000003 -12.499998 0.000000 -0.000003 -12.499998 0.000002 -0.000000 -9.999999 -0.000002 -0.000000 -4.999999 -0.000386 -0.000351 -1.772222 -0.000386 -0.000351 -1.772222 -0.000319 -0.000268 -1.417777 -0.000156 -0.000128 -0.708892 0.000448 0.000399 23.080673 0.000448 0.000399 23.080673 0.000208 0.000435 18.464535 0.000026 0.000235 9.232268 -0.000337 -0.000305 25.698711 -0.000337 -0.000305 25.698711 -0.000136 -0.000337 20.558976 -0.000002 -0.000182 10.279480 22.115645 4.260509 -7.190068 2.823514 5.655216 2.355465 0.000000 -0.149472 0.000000 3.136878 1.969642 -2.793407 0.000000 -9.093029 0.000000 -1.864245 5.654778 -12.604289 0.000000 -0.334380 0.000000 -4.852467 -0.227847 5.736990 0.000000 -5.013774 0.000000
-48.309387 89.479889 37.716354 1.170788 1.155245 2.140017 1.536283 -1.146298 -1.223989 1.557945 -1.003355 -0.878928 1.232262 -0.809857 -0.513680 1.162504 -0.694975 -0.094924 -1.339244 -1.494105 0.309195 -0.585135 2.924704 -0.361511 5.465198 0.197668 9.018124 -4.536350 2.431088 5.452880 -6.666702 6.871889 0.308160 12.729773 7.290517 -29.554704 22.115645 4.260509 -7.190068 25.393687 5.125894 -8.110646 -6.392075 -2.221688 -4.867381 0.000011 -0.000006 -0.904305 0.000011 -0.000006 -0.904305 0.000006 -0.000004 -0.723441 0.000001 -0.000003 -0.361724 0.000010 -0.000011 -1.690312 0.000010 -0.000011 -1.690312 0.000002 -0.000008 -1.352252 0.000011 -0.000004 -0.676126 0.000002 0.000001 4.533023 0.000002 0.000001 4.533023 -0.000009 -0.000002 3.626417 0.000006 0.000002 1.813210 0.000001 0.000004 -6.052626 0.000001 0.000004 -6.052626 -0.000009 0.000004 -4.842104 0.000003 0.000001 -2.421048 -168.578885 -0.013873 -179.861267 -8.889601 0.935790 -7.265531 5.933526 4.112075 -5.154579 8.533332 3.488689 1.769528 -10.976985 2.498132 34.166702 5.734318 8.537586 -13.015109 6.430370 9.921528 -14.915631 -51.784312 19.057548 19.282867 0.000000 -0.000003 -12.499998 0.000000 -0.000003 -12.499998 0.000002 -0.000000 -9.999999 -0.000002 -0.000000 -4.999999 -0.000386 -0.000351 -1.772222 -0.000386 -0.000351 -1.772222 -0.000319 -0.000268 -1.417777 -0.000156 -0.000128 -0.708892 0.000448 0.000399 23.080673 0.000448 0.000399 23.080673 0.000208 0.000435 18.464535 0.000026 0.000235 9.232268 -0.000337 -0.000305 25.698711 -0.000337 -0.000305 25.698711 -0.000136 -0.000337 20.558976 -0.000002 -0.000182 10.279480 22.115645 4.260509 -7.190068 2.871846 5.645026 2.365209 0.000000 -0.127344 0.000000 3.084934 2.001183 -2.824109 0.000000 -9.099622 0.000000 -1.891461 5.652667 -12.607205 0.000000 -0.313179 0.000000 -4.830865 -0.233289 5.758479 0.000000 -5.026647 0.000000
